<svg xmlns="http://www.w3.org/2000/svg" viewBox="0 0 400 300" preserveAspectRatio="xMidYMid slice">
  <defs>
    <linearGradient id="bg1" x1="0" y1="0" x2="1" y2="1">
      <stop offset="0%" stop-color="#e8a87c"></stop><stop offset="100%" stop-color="#c67856"></stop>
    </linearGradient>
  </defs>
  <rect width="400" height="300" fill="url(#bg1)"></rect>
  
  <g transform="translate(140 30)">
    <rect x="0" y="0" width="120" height="240" rx="18" fill="#fcf7e8" stroke="#1a1410" stroke-width="2"></rect>
    <rect x="6" y="8" width="108" height="6" rx="3" fill="#1a1410" opacity="0.06"></rect>
    
    <rect x="10" y="22" width="100" height="90" rx="6" fill="#f5d4b8"></rect>
    <path d="M30 90 L48 70 L62 82 L82 60 L100 74 L100 102 L30 102 Z" fill="#cc785c" opacity="0.55"></path>
    <circle cx="42" cy="46" r="7" fill="#fff" opacity="0.7"></circle>
    
    <rect x="10" y="120" width="70" height="6" rx="2" fill="#1a1410"></rect>
    <rect x="10" y="130" width="50" height="4" rx="2" fill="#1a1410" opacity="0.4"></rect>
    
    <rect x="10" y="142" width="30" height="8" rx="2" fill="#cc785c"></rect>
    
    <circle cx="14" cy="166" r="5" fill="#1a1410"></circle>
    <circle cx="28" cy="166" r="5" fill="#cc785c"></circle>
    <circle cx="42" cy="166" r="5" fill="#a8b088"></circle>
    <circle cx="56" cy="166" r="5" fill="#fff" stroke="#1a1410" stroke-width="1"></circle>
    
    <rect x="10" y="184" width="100" height="22" rx="11" fill="#1a1410"></rect>
    <rect x="40" y="192" width="40" height="6" rx="2" fill="#fcf7e8"></rect>
    
    <rect x="10" y="216" width="100" height="14" rx="7" fill="#1a1410" opacity="0.05"></rect>
    <circle cx="22" cy="223" r="2" fill="#1a1410" opacity="0.5"></circle>
    <circle cx="42" cy="223" r="2" fill="#1a1410" opacity="0.5"></circle>
    <circle cx="60" cy="223" r="2.5" fill="#cc785c"></circle>
    <circle cx="80" cy="223" r="2" fill="#1a1410" opacity="0.5"></circle>
    <circle cx="98" cy="223" r="2" fill="#1a1410" opacity="0.5"></circle>
  </g>
  
  <circle cx="40" cy="60" r="22" fill="#fcf7e8" opacity="0.3"></circle>
  <circle cx="360" cy="240" r="32" fill="#1a1410" opacity="0.08"></circle>
  <path d="M30 250 Q50 230 70 250 T110 250" stroke="#fcf7e8" stroke-width="2" fill="none" opacity="0.5"></path>
</svg>