<svg xmlns="http://www.w3.org/2000/svg" viewBox="0 0 400 300" preserveAspectRatio="xMidYMid slice">
  <defs>
    <linearGradient id="bg3" x1="0" y1="0" x2="1" y2="1">
      <stop offset="0%" stop-color="#e4c67a"></stop><stop offset="100%" stop-color="#a87d2a"></stop>
    </linearGradient>
  </defs>
  <rect width="400" height="300" fill="url(#bg3)"></rect>
  
  <g transform="translate(40 40)">
    <rect x="0" y="0" width="320" height="220" rx="10" fill="#fcf7e8" stroke="#1a1410" stroke-width="1.5"></rect>
    
    <rect x="0" y="0" width="320" height="22" rx="10" fill="#1a1410" opacity="0.06"></rect>
    <rect x="0" y="20" width="320" height="2" fill="#1a1410" opacity="0.1"></rect>
    <circle cx="12" cy="11" r="3" fill="#cc785c"></circle>
    <circle cx="22" cy="11" r="3" fill="#e4c67a"></circle>
    <circle cx="32" cy="11" r="3" fill="#8a9960"></circle>
    
    <rect x="0" y="22" width="56" height="198" fill="#1a1410" opacity="0.04"></rect>
    <rect x="8" y="32" width="40" height="6" rx="2" fill="#1a1410"></rect>
    <rect x="8" y="48" width="32" height="4" rx="2" fill="#1a1410" opacity="0.4"></rect>
    <rect x="8" y="58" width="40" height="4" rx="2" fill="#1a1410" opacity="0.4"></rect>
    <rect x="6" y="72" width="44" height="14" rx="3" fill="#cc785c" opacity="0.85"></rect>
    <rect x="8" y="94" width="38" height="4" rx="2" fill="#1a1410" opacity="0.3"></rect>
    <rect x="8" y="104" width="32" height="4" rx="2" fill="#1a1410" opacity="0.3"></rect>
    <rect x="8" y="114" width="40" height="4" rx="2" fill="#1a1410" opacity="0.3"></rect>
    
    <rect x="68" y="32" width="80" height="8" rx="2" fill="#1a1410"></rect>
    <rect x="68" y="46" width="120" height="4" rx="2" fill="#1a1410" opacity="0.4"></rect>
    
    <rect x="68" y="62" width="76" height="44" rx="6" fill="#1a1410" opacity="0.05"></rect>
    <rect x="74" y="70" width="30" height="3" rx="1" fill="#1a1410" opacity="0.5"></rect>
    <rect x="74" y="80" width="48" height="12" rx="2" fill="#1a1410"></rect>
    <rect x="74" y="98" width="20" height="3" rx="1" fill="#8a9960"></rect>
    <rect x="148" y="62" width="76" height="44" rx="6" fill="#1a1410" opacity="0.05"></rect>
    <rect x="154" y="70" width="30" height="3" rx="1" fill="#1a1410" opacity="0.5"></rect>
    <rect x="154" y="80" width="40" height="12" rx="2" fill="#cc785c"></rect>
    <rect x="154" y="98" width="22" height="3" rx="1" fill="#cc785c"></rect>
    <rect x="228" y="62" width="76" height="44" rx="6" fill="#cc785c" opacity="0.85"></rect>
    <rect x="234" y="70" width="30" height="3" rx="1" fill="#fcf7e8" opacity="0.7"></rect>
    <rect x="234" y="80" width="44" height="12" rx="2" fill="#fcf7e8"></rect>
    
    <rect x="68" y="116" width="156" height="92" rx="6" fill="#1a1410" opacity="0.04"></rect>
    
    <polyline points="78,190 95,170 112,178 132,150 152,158 172,130 192,142 212,118" stroke="#1a1410" stroke-width="2" fill="none" stroke-linecap="round" stroke-linejoin="round"></polyline>
    <polyline points="78,190 95,170 112,178 132,150 152,158 172,130 192,142 212,118 212,200 78,200" fill="#1a1410" opacity="0.06"></polyline>
    <circle cx="212" cy="118" r="3" fill="#cc785c"></circle>
    
    <g fill="#1a1410" opacity="0.3">
      <circle cx="78" cy="200" r="1"></circle><circle cx="98" cy="200" r="1"></circle>
      <circle cx="118" cy="200" r="1"></circle><circle cx="138" cy="200" r="1"></circle>
      <circle cx="158" cy="200" r="1"></circle><circle cx="178" cy="200" r="1"></circle>
      <circle cx="198" cy="200" r="1"></circle><circle cx="218" cy="200" r="1"></circle>
    </g>
    
    <rect x="232" y="116" width="72" height="92" rx="6" fill="#1a1410" opacity="0.04"></rect>
    <rect x="240" y="124" width="32" height="4" rx="2" fill="#1a1410" opacity="0.6"></rect>
    <g>
      <rect x="240" y="138" width="56" height="3" rx="1" fill="#cc785c"></rect>
      <rect x="240" y="148" width="44" height="3" rx="1" fill="#1a1410" opacity="0.4"></rect>
      <rect x="240" y="158" width="50" height="3" rx="1" fill="#1a1410" opacity="0.4"></rect>
      <rect x="240" y="168" width="38" height="3" rx="1" fill="#1a1410" opacity="0.4"></rect>
      <rect x="240" y="178" width="48" height="3" rx="1" fill="#1a1410" opacity="0.4"></rect>
      <rect x="240" y="188" width="40" height="3" rx="1" fill="#1a1410" opacity="0.4"></rect>
    </g>
  </g>
  
  <circle cx="20" cy="20" r="8" fill="#fcf7e8" opacity="0.4"></circle>
  <circle cx="380" cy="280" r="18" fill="#1a1410" opacity="0.1"></circle>
</svg>