<svg xmlns="http://www.w3.org/2000/svg" viewBox="0 0 400 300" preserveAspectRatio="xMidYMid slice">
  <defs>
    <linearGradient id="bg2" x1="0" y1="0" x2="1" y2="1">
      <stop offset="0%" stop-color="#cdd4b4"></stop><stop offset="100%" stop-color="#8a9960"></stop>
    </linearGradient>
    <radialGradient id="orb" cx="0.5" cy="0.5" r="0.5">
      <stop offset="0%" stop-color="#fcf7e8" stop-opacity="0.95"></stop>
      <stop offset="100%" stop-color="#fcf7e8" stop-opacity="0"></stop>
    </radialGradient>
  </defs>
  <rect width="400" height="300" fill="url(#bg2)"></rect>
  
  <g transform="translate(140 30)">
    <rect x="0" y="0" width="120" height="240" rx="18" fill="#2a3a1f"></rect>
    
    <rect x="10" y="14" width="40" height="6" rx="2" fill="#fcf7e8" opacity="0.6"></rect>
    <rect x="10" y="24" width="60" height="8" rx="2" fill="#fcf7e8"></rect>
    
    <circle cx="60" cy="100" r="42" fill="url(#orb)"></circle>
    <circle cx="60" cy="100" r="28" fill="#fcf7e8" opacity="0.7"></circle>
    <circle cx="60" cy="100" r="16" fill="#fcf7e8"></circle>
    
    <rect x="38" y="155" width="44" height="5" rx="2" fill="#fcf7e8" opacity="0.7"></rect>
    <rect x="44" y="165" width="32" height="4" rx="2" fill="#fcf7e8" opacity="0.4"></rect>
    
    <rect x="10" y="184" width="100" height="36" rx="8" fill="#fcf7e8" opacity="0.92"></rect>
    <circle cx="22" cy="202" r="7" fill="#8a9960"></circle>
    <rect x="34" y="194" width="38" height="5" rx="2" fill="#1a1410"></rect>
    <rect x="34" y="203" width="26" height="3" rx="2" fill="#1a1410" opacity="0.5"></rect>
    <rect x="86" y="196" width="18" height="12" rx="6" fill="#cc785c"></rect>
    
    <circle cx="40" cy="232" r="2" fill="#fcf7e8" opacity="0.4"></circle>
    <rect x="50" y="230" width="20" height="4" rx="2" fill="#fcf7e8"></rect>
    <circle cx="80" cy="232" r="2" fill="#fcf7e8" opacity="0.4"></circle>
  </g>
  
  <path d="M40 200 Q30 180 50 170 Q70 180 60 210 Q50 220 40 200" fill="#fcf7e8" opacity="0.4"></path>
  <path d="M340 80 Q330 60 350 50 Q370 60 360 90 Q350 100 340 80" fill="#2a3a1f" opacity="0.25"></path>
  <circle cx="40" cy="50" r="4" fill="#fcf7e8" opacity="0.6"></circle>
  <circle cx="60" cy="40" r="3" fill="#fcf7e8" opacity="0.5"></circle>
  <circle cx="350" cy="240" r="5" fill="#fcf7e8" opacity="0.4"></circle>
</svg>